<svg id="Layer_1" style="height:90px;" data-name="Layer 1" xmlns="http://www.w3.org/2000/svg" viewBox="0 0 461.85 236.46"><defs><style>.cls-1,.cls-2,.cls-3,.cls-4{fill:#067b3f;}.cls-1{stroke:#c1509d;stroke-miterlimit:10;}.cls-3{opacity:0.11;}.cls-4{opacity:0.21;}.cls-5{fill:#0a3a47;}</style></defs><path class="cls-1" d="M387,51" transform="translate(-75.64 -32.59)"></path><path class="cls-2" d="M373.34,231.18" transform="translate(-75.64 -32.59)"></path><path class="cls-2" d="M381.38,233.63" transform="translate(-75.64 -32.59)"></path><path class="cls-3" d="M430.48,98c-2.87-13.23-11.86-27.83-21.34-38.16C383.7,32.09,340.84,28,287.51,36.58c-45.73,7.33-95.06,22.67-123.31,54.49a87.45,87.45,0,0,0-21.88,59.11c.36,14.18,8,21.2,17.81,31.86,3.18,3.45,22.58-.85,27.09-4.39,5.13-4,173.38-46.22,142.91-10.86-16.76,14.87-60.67,33.88-47.5,28-9.47,4.23-14.44,14.78-8.11,19,6.5,4.31,33.31,4.62,43.49.06,33.79-15.11,65.45-31.08,88.84-54.77C426.73,138.86,434.91,118.43,430.48,98Z" transform="translate(-75.64 -32.59)"></path><path class="cls-3" d="M269,224c27.18-20,32.68-50.58,32.88-78.71.16-23.49-2.4-37.94-21.27-47.6-17.53-7.55-90.6,17.85-133.7,50.45C126,164,114.44,189,115.35,198.45c-2.84,9.56-3.12,23.22,0,30.39,6.3,14.32,25,18.93,38.94,21,19.37,2.83,38.24-.11,57.38-3.54,4.92-.88,9.84-1.82,14.76-2.75,7.79-1.47,15.72-3,23-6.28S262.76,228.66,269,224Z" transform="translate(-75.64 -32.59)"></path><path class="cls-3" d="M338.45,103.42c-26.34,11.45-62.56,25.78-82.05,44.49l-15.75,17.14q-19,21.18-8.06,37.62c11.18,43.06,65.69,67.57,140,49.69,34.5-8.3,68.23-19.32,92.72-42.18,11.43-10.68,18.64-19.73,21.15-31.53s-1.49-23.82-8-33.87c-6.12-9.39-9.11-19.94-21.32-25.15a59,59,0,0,0-11.72-3.16c-10.56-2.11-21.27-4.85-32-6.1-9.54-1.11-21.79-1.48-30.53-5Q362.75,100.22,338.45,103.42Z" transform="translate(-75.64 -32.59)"></path><path class="cls-4" d="M214.78,70.76c-24.12,21.93-50.9,47.1-62.37,74.44-8,19-6.2,35.6.72,49.26,13.4,26.45,48.09,36.73,86.78,29.5,19.44-3.64,37.91-10.37,57.72-20.53q31.15-16.32,51.06-42.58a91.28,91.28,0,0,0,18.71-23.09l3-30.55q-1.31-17.43-15.29-24.48c-14.22-8.76-22.27-8.87-44-6.35-21.29,2.47-95.19,58.72-84.91,48.4a185.65,185.65,0,0,1,44.12-42.84C295.7,61,231.17,55.84,214.78,70.76Z" transform="translate(-75.64 -32.59)"></path><path class="cls-5" d="M269.63,219.43" transform="translate(-75.64 -32.59)"></path><path class="cls-5" d="M92.49,214.7H82.74a.4.4,0,0,0-.44.44v14.64a.39.39,0,0,0,.44.44h3.09a.39.39,0,0,0,.44-.44V225H90.9a.39.39,0,0,0,.44-.44V222a.4.4,0,0,0-.44-.45H86.27v-3.3h6.22a.39.39,0,0,0,.44-.44v-2.71A.4.4,0,0,0,92.49,214.7Z" transform="translate(-75.64 -32.59)"></path><path class="cls-5" d="M110.45,214.7h-3.09a.4.4,0,0,0-.45.44v8.43c0,2-1,3.28-2.72,3.28s-2.7-1.27-2.7-3.28v-8.43a.4.4,0,0,0-.44-.44H98a.4.4,0,0,0-.44.44v9c0,3.69,2.43,6.41,6.68,6.41s6.7-2.72,6.7-6.41v-9A.4.4,0,0,0,110.45,214.7Z" transform="translate(-75.64 -32.59)"></path><path class="cls-5" d="M129.65,214.7h-3a.4.4,0,0,0-.44.44v8.33L120.94,215a.57.57,0,0,0-.53-.29H117a.4.4,0,0,0-.44.44v14.64a.4.4,0,0,0,.44.44h3a.4.4,0,0,0,.44-.44V221l5.67,9a.58.58,0,0,0,.53.29h3a.4.4,0,0,0,.45-.44V215.14A.4.4,0,0,0,129.65,214.7Z" transform="translate(-75.64 -32.59)"></path><path class="cls-5" d="M141.91,214.7h-5.4a.4.4,0,0,0-.44.44v14.64a.39.39,0,0,0,.44.44H142a7.77,7.77,0,1,0,0-15.52Zm.17,11.71h-2v-7.9h2a4,4,0,1,1,0,7.9Z" transform="translate(-75.64 -32.59)"></path><path class="cls-5" d="M165.14,224.23a4.65,4.65,0,0,0,2.31-4.25A5.13,5.13,0,0,0,162,214.7h-6.26a.4.4,0,0,0-.44.44v14.64a.39.39,0,0,0,.44.44h3.09a.39.39,0,0,0,.44-.44v-4.51h2.08l2.16,4.63a.53.53,0,0,0,.52.33h3.54c.34,0,.47-.22.32-.52Zm-3.51-2.33h-2.37v-3.72h2.4a1.68,1.68,0,0,1,1.76,1.81A1.85,1.85,0,0,1,161.63,221.9Z" transform="translate(-75.64 -32.59)"></path><path class="cls-5" d="M181.16,215a.5.5,0,0,0-.5-.35h-2.73a.5.5,0,0,0-.51.35l-5.66,14.68a.35.35,0,0,0,.36.51h3.17a.47.47,0,0,0,.49-.36l.71-2.07h5.57l.7,2.07a.49.49,0,0,0,.5.36h3.18c.32,0,.46-.21.35-.51Zm-3.54,9.45,1.48-4.35.16-.71.2.71,1.48,4.35Z" transform="translate(-75.64 -32.59)"></path><rect class="cls-5" x="115.89" y="182.11" width="3.98" height="15.52" rx="0.44"></rect><path class="cls-5" d="M207.75,220.62c-1.63-.57-2.6-.84-2.6-1.72,0-.63.56-.92,1.55-.92a5.12,5.12,0,0,1,3,1.16.4.4,0,0,0,.62,0l1.79-2a.41.41,0,0,0,0-.63,8.37,8.37,0,0,0-5.44-2c-3.81,0-5.53,2.15-5.53,4.47,0,3,2.92,4.4,4.73,4.93,2.3.68,2.68,1.13,2.68,1.82s-.56,1.19-1.87,1.19a4.72,4.72,0,0,1-3.39-1.47.39.39,0,0,0-.62,0l-2,1.85a.41.41,0,0,0,0,.63,8,8,0,0,0,6.09,2.69c3.52,0,5.8-2,5.8-5C212.5,222.88,210.66,221.64,207.75,220.62Z" transform="translate(-75.64 -32.59)"></path><rect class="cls-5" x="141.98" y="182.11" width="3.98" height="15.52" rx="0.44"></rect><path class="cls-5" d="M240.67,214.7h-3a.4.4,0,0,0-.44.44v8.33L232,215a.57.57,0,0,0-.53-.29H228a.4.4,0,0,0-.44.44v14.64a.4.4,0,0,0,.44.44h3a.4.4,0,0,0,.44-.44V221l5.67,9a.58.58,0,0,0,.53.29h3a.4.4,0,0,0,.45-.44V215.14A.4.4,0,0,0,240.67,214.7Z" transform="translate(-75.64 -32.59)"></path><path class="cls-5" d="M259.29,223h-2.87a.4.4,0,0,0-.44.44v3.09a5.23,5.23,0,0,1-1.59.23,4.27,4.27,0,0,1-4-4.35,4.16,4.16,0,0,1,4-4.24,4.71,4.71,0,0,1,2.56.84.41.41,0,0,0,.62-.08l1.79-2.35a.39.39,0,0,0-.08-.61,8.06,8.06,0,0,0-4.89-1.61,8.05,8.05,0,1,0,0,16.1,9,9,0,0,0,5.08-1.5.6.6,0,0,0,.27-.53v-5A.4.4,0,0,0,259.29,223Z" transform="translate(-75.64 -32.59)"></path><path class="cls-5" d="M283.42,224.23a4.65,4.65,0,0,0,2.31-4.25,5.13,5.13,0,0,0-5.46-5.28H274a.4.4,0,0,0-.44.44v14.64a.39.39,0,0,0,.44.44h3.09a.39.39,0,0,0,.44-.44v-4.51h2.08l2.17,4.63a.52.52,0,0,0,.52.33h3.53c.34,0,.48-.22.32-.52Zm-3.51-2.33h-2.37v-3.72h2.4A1.68,1.68,0,0,1,281.7,220,1.85,1.85,0,0,1,279.91,221.9Z" transform="translate(-75.64 -32.59)"></path><path class="cls-5" d="M302.27,226.63h-7v-2.55h5.27a.4.4,0,0,0,.44-.44v-2.49a.4.4,0,0,0-.44-.44h-5.27v-2.42h6.86a.4.4,0,0,0,.44-.44v-2.71a.4.4,0,0,0-.44-.44h-10.4a.4.4,0,0,0-.44.44v14.64a.4.4,0,0,0,.44.44h10.56a.4.4,0,0,0,.45-.44v-2.71A.4.4,0,0,0,302.27,226.63Z" transform="translate(-75.64 -32.59)"></path><path class="cls-5" d="M319.9,223H317a.4.4,0,0,0-.44.44v3.09a5.25,5.25,0,0,1-1.6.23,4.27,4.27,0,0,1-4-4.35,4.16,4.16,0,0,1,4-4.24,4.77,4.77,0,0,1,2.57.84.41.41,0,0,0,.62-.08l1.79-2.35a.39.39,0,0,0-.08-.61,8.11,8.11,0,0,0-4.9-1.61,8.05,8.05,0,1,0,0,16.1,9.06,9.06,0,0,0,5.09-1.5.61.61,0,0,0,.26-.53v-5A.4.4,0,0,0,319.9,223Z" transform="translate(-75.64 -32.59)"></path><rect class="cls-5" x="250.13" y="182.11" width="3.98" height="15.52" rx="0.44"></rect><path class="cls-5" d="M342,220.62c-1.63-.57-2.6-.84-2.6-1.72,0-.63.56-.92,1.55-.92a5.12,5.12,0,0,1,2.95,1.16.4.4,0,0,0,.62,0l1.79-2a.41.41,0,0,0,0-.63,8.37,8.37,0,0,0-5.44-2c-3.81,0-5.53,2.15-5.53,4.47,0,3,2.92,4.4,4.73,4.93,2.29.68,2.68,1.13,2.68,1.82s-.56,1.19-1.87,1.19a4.72,4.72,0,0,1-3.39-1.47.39.39,0,0,0-.62,0l-1.95,1.85a.41.41,0,0,0,0,.63,8,8,0,0,0,6.09,2.69c3.52,0,5.8-2,5.8-5C346.74,222.88,344.9,221.64,342,220.62Z" transform="translate(-75.64 -32.59)"></path><path class="cls-5" d="M362.19,214.7H350.76a.4.4,0,0,0-.44.44V218a.39.39,0,0,0,.44.44h3.72v11.38a.4.4,0,0,0,.44.44H358a.39.39,0,0,0,.44-.44V218.4h3.73a.4.4,0,0,0,.45-.44v-2.82A.4.4,0,0,0,362.19,214.7Z" transform="translate(-75.64 -32.59)"></path><path class="cls-5" d="M377.3,224.23a4.65,4.65,0,0,0,2.31-4.25,5.13,5.13,0,0,0-5.46-5.28h-6.26a.4.4,0,0,0-.44.44v14.64a.39.39,0,0,0,.44.44H371a.39.39,0,0,0,.44-.44v-4.51h2.08l2.17,4.63a.51.51,0,0,0,.51.33h3.54c.34,0,.47-.22.32-.52Zm-3.51-2.33h-2.37v-3.72h2.4a1.68,1.68,0,0,1,1.76,1.81A1.85,1.85,0,0,1,373.79,221.9Z" transform="translate(-75.64 -32.59)"></path><path class="cls-5" d="M393.32,215a.49.49,0,0,0-.5-.35h-2.73a.5.5,0,0,0-.51.35l-5.66,14.68a.35.35,0,0,0,.36.51h3.17a.49.49,0,0,0,.5-.36l.7-2.07h5.57l.71,2.07a.47.47,0,0,0,.49.36h3.19c.32,0,.45-.21.34-.51Zm-3.54,9.45,1.48-4.35.17-.71.19.71,1.48,4.35Z" transform="translate(-75.64 -32.59)"></path><path class="cls-5" d="M412.62,214.7H401.19a.4.4,0,0,0-.45.44V218a.4.4,0,0,0,.45.44h3.72v11.38a.39.39,0,0,0,.44.44h3.09a.4.4,0,0,0,.45-.44V218.4h3.73a.39.39,0,0,0,.44-.44v-2.82A.4.4,0,0,0,412.62,214.7Z" transform="translate(-75.64 -32.59)"></path><rect class="cls-5" x="342.23" y="182.11" width="3.98" height="15.52" rx="0.44"></rect><path class="cls-5" d="M435.12,214.4a8.05,8.05,0,1,0,8.07,8A8,8,0,0,0,435.12,214.4Zm0,12.29a4.25,4.25,0,1,1,4-4.24A4.17,4.17,0,0,1,435.12,226.69Z" transform="translate(-75.64 -32.59)"></path><path class="cls-5" d="M458.45,230.22h3a.4.4,0,0,0,.44-.44V215.14a.4.4,0,0,0-.44-.44h-3a.4.4,0,0,0-.44.44v8.33L452.77,215a.57.57,0,0,0-.53-.29h-3.41a.4.4,0,0,0-.45.44v14.64a.4.4,0,0,0,.45.44h3a.39.39,0,0,0,.44-.44V221l5.67,9A.59.59,0,0,0,458.45,230.22Z" transform="translate(-75.64 -32.59)"></path><circle class="cls-5" cx="235.11" cy="68.55" r="8.59"></circle><circle class="cls-5" cx="419.15" cy="101.15" r="8.59" transform="translate(89.66 417.09) rotate(-67.5)"></circle><path class="cls-5" d="M306.5,54.08c1.14,3,2,5.15,2.4,6.21,1.78,4.27,3.83,6.06,7.88,3.38a10.77,10.77,0,0,0,3.4-3.35A8,8,0,0,0,321.39,57a6.89,6.89,0,0,0-.71-2.91c-.29-.77-4-7.39-4-7.39Z" transform="translate(-75.64 -32.59)"></path><path class="cls-5" d="M305.64,121.14a13.19,13.19,0,0,0-2.59.31c-2.5.55-5.11,2.14-5.7,4.8-.8,3.56-1.67,7.11-2.55,10.66l-.06.22q-2.78,11.16-5.56,22.32-2.43,9.69-4.84,19.4c-.66,2.66-1.66,6.21-1.13,9,.47,2.4,2.72,3,4.9,3a9.71,9.71,0,0,0,6.58-2.15c2.31-2,2.33-5.56,3-8.36.47-1.83.92-3.67,1.38-5.5l4.14-16.6c1.87-7.51,3.58-15.07,5.61-22.53.92-3.36,2-6.9,1.89-10.42a3.79,3.79,0,0,0-3-4A9.13,9.13,0,0,0,305.64,121.14Z" transform="translate(-75.64 -32.59)"></path><path class="cls-5" d="M415.54,121.17a10.69,10.69,0,0,0-4.66,1,8,8,0,0,0-2.83,2.2,7,7,0,0,0-.94,2.84,1.64,1.64,0,0,0,0,.18l-2.61,10.45q-2.78,11.16-5.56,22.31-2.42,9.71-4.84,19.41c-.66,2.65-1.66,6.21-1.13,8.94.47,2.41,2.72,3.05,4.9,3.05,3.35,0,6.8-1.23,8.17-4.51a38.83,38.83,0,0,0,1.61-6.69c.54-2.44,1.12-4.88,1.73-7.3,1.18-4.72,2.45-9.4,3.63-14.12l3.87-15.53c1.34-5.38,3.09-10.78,3.71-16.31C421,123.36,419.5,121.08,415.54,121.17Z" transform="translate(-75.64 -32.59)"></path><path class="cls-5" d="M533,122.29a11.22,11.22,0,0,0-2.3-.22c-7.24,0-8.75,10-11.06,15.19-3.76,8.4-7.84,16.81-13.06,24.42-10,14.61-15.81,16.18-17.83,16.18a3.82,3.82,0,0,1-4-3.93c0-4.67,3.66-13.93,6.33-20.69,3.16-8,4.95-12.7,4.95-16.37,0-9.24-6.19-15.21-15.78-15.21H459.64c.35-1.44.69-2.89,1-4.33q1.24-5.23,2.5-10.47,1.54-6.44,3.08-12.87,1.37-5.76,2.75-11.51c.54-2.29,2.69-10.15,3.16-11.82,1.25-4.45.75-7.12-4.09-7.53a9.83,9.83,0,0,0-6.42,1.39,9.13,9.13,0,0,0-3.48,5.59c-1.06,4-1.9,8.16-2.87,12.23q-1.33,5.56-2.66,11.12-1.5,6.3-3,12.6l-2.52,10.56q-.6,2.49-1.19,5l0,.06-13.32-.07c-4.62-.1-7.09,1-6.27,5.84.56,3.27,2.58,7,6.23,7.43a70,70,0,0,0,8.93.15h1.24l-.51,2.13c-.44,1.86-.89,3.72-1.33,5.58-.63,2.62-1.25,5.24-1.88,7.87-.71,3-1.43,6-2.14,9l-2.13,8.92-1.84,7.67-1.25,5.26c-.77,3.18-2.19,8.71,2.3,9.64a9.23,9.23,0,0,0,1.89.17,10.62,10.62,0,0,0,4.93-1,9.19,9.19,0,0,0,2-1.48,5.34,5.34,0,0,0,.89-1,15.28,15.28,0,0,0,1.14-4.06l1.29-5.4,1.77-7.42,2-8.53,2.08-8.71c.64-2.66,1.27-5.32,1.91-8q.75-3.15,1.51-6.31l.89-3.72a4.75,4.75,0,0,1,.14-.62h23.71c2,0,2.7,1.42,2.1,3.3-.77,2.44-2.39,6.72-3.69,10-3.41,8.62-7.93,17.51-7.93,26.93,0,10,7.36,16,16.4,16,7.42,0,17-5.46,26.91-19.21-5.66,20-14.8,48.28-20.05,61.69-7.74,19.77-16.64,22.06-22.66,22.06a14.41,14.41,0,0,1-5.49-1.09c-1.16-.62-5.23-2.77-5.69-3-4.15-2.05-6.87-2.06-8.16,2.63-.68,2.49-.8,5.53.78,7.75,1.45,2,4.56,3.38,6.78,4.37,16.36,7.28,32.15-1.44,40.87-15.58a77.55,77.55,0,0,0,6-12.28c11.48-29.35,19-60.43,26.5-91,1.45-6,3.14-12,4.33-18C537.93,125.69,537.63,122.61,533,122.29Zm-17.21,43.2s0-.08,0-.19A1.33,1.33,0,0,1,515.75,165.49Z" transform="translate(-75.64 -32.59)"></path><path class="cls-5" d="M321.23,55.09c-1.53-6.57-8.19-19-22.46-19A22.19,22.19,0,0,0,280.58,45a22.46,22.46,0,0,0-17.83-8.87c-18.47,0-24.76,18.07-29.2,35-2.2,8.37-7.37,29.17-12.67,50.61H196.7c3.7-13.81,7.41-27.86,10.48-39.94,7.81-30.66,9.9-38.9,5.7-44.31a8.55,8.55,0,0,0-6.81-3.27c-9.1,0-14.9,8.76-27.61,28l-3.11,4.7c-3.61,5.43-7.66,11.59-11.94,18.12-7.6,11.58-16,24.45-24.36,36.74-9.49,0-19-.07-28.48,0-4.88,0-16.8-2-14.88,6.28a13.67,13.67,0,0,0,.78,2.39c2.94,6.67,11.77,4.7,17.61,4.7h15.81c-6.72,9.64-13.09,18.4-18.57,25.2-11.11,13.8-16.47,16.86-23,17.39-.8,0-6.07.35-6.66.4-4.6.39-6.93,1.8-5.61,6.47,1,3.45,3,6,6.65,6.53,9.69,1.28,19.83-2.94,27-9.28a107.43,107.43,0,0,0,12.08-13.14c7.11-8.83,15.61-20.74,24.39-33.57h33.14q-4,14.91-8.15,29.81-2.3,8.37-4.62,16.73c-.56,2-1.39,4.79-.71,6.87s2.72,2.5,4.58,2.6a11.67,11.67,0,0,0,6.06-1.28c2.46-1.35,2.56-3.26,3.24-5.73.29-1,.57-2,.86-3.07l2.58-9.33q3.85-14,7.67-28c.22-.79,2-8.58,2.33-8.58h24.49q-4.69,19-9.35,38.09c-1.05,4.26-2.34,8.48-2.83,12.85-.4,3.58,1.14,5.48,4.84,5.48a10,10,0,0,0,6-1.73c2.35-1.73,2.76-4.51,3.38-7.16.43-1.8.89-3.6,1.33-5.4q2-8.13,4-16.26,3.18-12.94,6.37-25.87h22.26l-9.36,38.11c-.94,3.84-2.22,7.71-2.45,11.65-.1,1.61-.41,3.56.67,4.93s2.74,1.46,4.22,1.46a9.59,9.59,0,0,0,7-2.63c1.93-2.09,3.55-12.44,4.1-14.69q2.16-8.84,4.33-17.67,1.26-5.14,2.53-10.29c.24-1,2.27-10.87,2.68-10.87,0,0,14.53.36,17.06.12s4.59-3.41,5.49-6.66c1.31-4.68-1-6.07-5.64-6.45l-13.62-.37c5-20.22,9.76-39.32,11.83-47.22,6.06-23.11,11.37-25,16.28-25,7.07,0,9.24,7.82,9.45,8.66a6.68,6.68,0,0,0,13-3ZM182.87,121.71H155.15c6.69-10,13.33-20.12,19.43-29.41,4.27-6.51,8.3-12.66,11.89-18.06l3.13-4.72c3.71-5.61,7.49-11.32,10.63-15.53-1.37,6.35-3.59,15.06-6,24.49C190.93,91.51,186.87,106.85,182.87,121.71Zm86.7-50.61c-2.2,8.37-7.37,29.17-12.66,50.61H234.64c5-20.22,9.75-39.32,11.83-47.22,6.06-23.11,11.36-25,16.28-25,7.43,0,10.09,8.64,10.19,8.95s.15.49.24.72C271.78,63,270.62,67.08,269.57,71.1Z" transform="translate(-75.64 -32.59)"></path><path class="cls-5" d="M384.4,180.54a6.84,6.84,0,0,0-1.15-1.13c-5.06-3.84-1.07-16.36.38-27,.7-5.16,1.62-11,1.64-15.89a15,15,0,0,0-4.15-11,13.52,13.52,0,0,0-9.68-3.89c-7.55,0-13.76,6.55-22.06,16.13-4.26,4.92-10.71,13.26-15.53,19.62,1.39-4.72,2.71-9.46,4-14.21.91-3.35,2-6.77,2.78-10.19.67-2.84,2.17-7.31.57-10.05-.92-1.57-2.88-1.83-4.54-1.8-.48,0-1,0-1.44.11-2.3.27-4.06.69-5.61,2.58-1.42,1.72-1.65,4.29-2.16,6.39-.65,2.66-1.23,5.34-1.85,8q-1.74,7.44-3.49,14.88-2.58,11-5.13,22c-.66,2.88-1.36,5.76-1.92,8.67-.88,4.53-.16,7.16,4.69,7.16a9.24,9.24,0,0,0,7.89-3.5c2.15-2.59,12.45-15.08,22.4-28.49,9.8-13.21,19.46-23.84,21.4-23.84h.18a3.51,3.51,0,0,1,.21,1.4,108.52,108.52,0,0,1-1.33,13.65c-.85,6.24-3.28,18.52-3.28,26.53a18.68,18.68,0,0,0,1.77,8.11,1.94,1.94,0,0,0,.39.74,11,11,0,0,0,7.45,5.72l.17.09a9.2,9.2,0,0,0,8.29-2.39C389,185.86,387.89,183.4,384.4,180.54Z" transform="translate(-75.64 -32.59)"></path></svg>